# xmcd CD database file
#
# Track frame offsets:
#	150
#	14531
#	34383
#	53636
#	65693
#	84549
#	103175
#	120925
#	134886
#	147168
#	164713
#	177167
#	196174
#
# Disc length: 2839 seconds
#
# Revision: 0
# Processed by: cddbd v1.5.2PL0 Copyright (c) Steve Scherf et al.
# Submitted via: CDex 1.70beta2
#
DISCID=be0b150d
DTITLE=Various Artist - Plays ”The Beatles” Lounge Cover (Disc2)
DYEAR=2010
DGENRE=Jazz
TTITLE0=The Long And Winding Road
TTITLE1=Lucy In The Sky With Diamonds
TTITLE2=Hello，Goodbye
TTITLE3=Penny Lane
TTITLE4=Ob-la-di，Ob-la-da
TTITLE5=Hey Jude
TTITLE6=All You Need Is Love
TTITLE7=Across The Universe
TTITLE8=Lady Madonna
TTITLE9=Something
TTITLE10=Get Back
TTITLE11=Come Together
TTITLE12=Let It Be
EXTD=YEAR: 2010
EXTT0=
EXTT1=
EXTT2=
EXTT3=
EXTT4=
EXTT5=
EXTT6=
EXTT7=
EXTT8=
EXTT9=
EXTT10=
EXTT11=
EXTT12=
PLAYORDER=
